<svg width="27" height="27" viewBox="0 0 27 27" fill="none" xmlns="http://www.w3.org/2000/svg">
<path d="M9.25004 25.5833H17.4167M9.25004 25.5833V18.7778M9.25004 25.5833H1.90004C1.68345 25.5833 1.47572 25.4973 1.32257 25.3441C1.16942 25.191 1.08337 24.9833 1.08337 24.7667V19.5944C1.08337 19.3778 1.16942 19.1701 1.32257 19.017C1.47572 18.8638 1.68345 18.7778 1.90004 18.7778H9.25004M17.4167 25.5833V9.25M17.4167 25.5833H24.7667C24.9833 25.5833 25.191 25.4973 25.3442 25.3441C25.4973 25.191 25.5834 24.9833 25.5834 24.7667V1.89999C25.5834 1.6834 25.4973 1.47568 25.3442 1.32252C25.191 1.16937 24.9833 1.08333 24.7667 1.08333H18.2334C18.0168 1.08333 17.8091 1.16937 17.6559 1.32252C17.5027 1.47568 17.4167 1.6834 17.4167 1.89999V9.25M17.4167 9.25H10.0667C9.85011 9.25 9.64239 9.33604 9.48924 9.48919C9.33608 9.64235 9.25004 9.85007 9.25004 10.0667V18.7778" stroke="#4D5659" stroke-width="2"/>
</svg>
