<svg width="213" height="36" viewBox="0 0 213 36" fill="none" xmlns="http://www.w3.org/2000/svg">
<mask id="mask0_1852_640" style="mask-type:alpha" maskUnits="userSpaceOnUse" x="0" y="14" width="124" height="22">
<g clip-path="url(#clip0_1852_640)">
<path d="M1.77962 28.2504C1.78095 28.5795 1.8731 28.9018 2.04602 29.1823C2.23451 29.491 2.4842 29.7582 2.77986 29.9676C3.1152 30.2059 3.48697 30.3888 3.88085 30.5092C4.32668 30.6475 4.79145 30.7156 5.25839 30.7112C6.52518 30.7112 7.47532 30.5167 8.10879 30.1278C8.40826 29.9573 8.65511 29.7084 8.82258 29.4082C8.99004 29.1079 9.07173 28.7678 9.05877 28.4246C9.07293 28.0618 8.96889 27.7043 8.76217 27.4052C8.54531 27.1201 8.26485 26.889 7.94291 26.7303C7.55353 26.5354 7.1415 26.3889 6.71616 26.2943C6.24691 26.1842 5.73755 26.0832 5.18807 25.9912C4.87253 25.9486 4.53566 25.8982 4.17745 25.84C3.81857 25.7819 3.46297 25.7053 3.11207 25.6104C2.76476 25.517 2.42522 25.397 2.0965 25.2514C1.78492 25.1164 1.49654 24.9335 1.24185 24.7096C0.995892 24.4908 0.795953 24.2256 0.653607 23.9294C0.49871 23.591 0.423105 23.2221 0.432508 22.8504C0.429777 22.3565 0.523707 21.8668 0.709051 21.4087C0.902865 20.9429 1.21042 20.5326 1.60382 20.2151C2.07988 19.8396 2.6269 19.5633 3.21237 19.4026C3.99635 19.1875 4.80756 19.087 5.62057 19.1042C6.28509 19.0952 6.94732 19.1834 7.58613 19.3658C8.12098 19.5176 8.62232 19.7684 9.06396 20.1049C9.45945 20.4067 9.77861 20.7964 9.99599 21.2428C10.2134 21.6892 10.3229 22.18 10.316 22.676H8.52597C8.52995 22.3737 8.45732 22.0753 8.31479 21.8084C8.16826 21.5416 7.96177 21.3121 7.71144 21.1379C7.41976 20.9373 7.0947 20.7896 6.75132 20.7017C6.33308 20.5924 5.90196 20.5395 5.46957 20.5447C4.93868 20.5321 4.40873 20.5955 3.89595 20.7329C3.53265 20.8301 3.19255 20.9987 2.89571 21.2288C2.66363 21.4123 2.48344 21.6527 2.37282 21.9264C2.27413 22.1766 2.22293 22.4429 2.22182 22.7117C2.21139 23.0226 2.30907 23.3274 2.49836 23.5749C2.70636 23.8254 2.97202 24.0222 3.27277 24.1486C3.65474 24.3142 4.05445 24.4359 4.46414 24.5112C4.92647 24.6035 5.43246 24.6801 5.98209 24.741C6.56537 24.8328 7.14686 24.9525 7.72654 25.1C8.27593 25.2349 8.80385 25.445 9.2952 25.7244C9.74898 25.9827 10.1362 26.3426 10.4262 26.7756C10.7317 27.27 10.8822 27.8439 10.8584 28.4239C10.8683 28.972 10.735 29.5132 10.4715 29.9945C10.2001 30.4679 9.81705 30.8684 9.35538 31.1613C8.81042 31.5043 8.21016 31.7513 7.58095 31.8914C6.80948 32.0679 6.0197 32.1526 5.22818 32.1438C4.46659 32.157 3.70833 32.0406 2.98609 31.7996C2.39079 31.6004 1.83588 31.2973 1.34733 30.9044C0.926542 30.5643 0.583725 30.1384 0.341904 29.6555C0.120972 29.2197 0.00397168 28.739 0 28.2509L1.77962 28.2504Z" fill="#303038"/>
<path d="M13.5731 19.3896H22.6621V20.8222H15.3527V24.9817H21.706V26.405H15.3527V30.4543H22.7525V31.8775H13.5731V19.3896Z" fill="#303038"/>
<path d="M30.9067 27.2394H27.1153V31.8773H25.3348V19.3896H31.1463C31.7661 19.3826 32.3829 19.4773 32.9718 19.6698C33.497 19.841 33.9836 20.1123 34.4046 20.4686C34.8042 20.8112 35.1248 21.2356 35.3447 21.7128C35.5736 22.2174 35.6886 22.7659 35.6814 23.3195C35.6852 23.7613 35.6139 24.2006 35.4704 24.6187C35.336 25.008 35.1353 25.3715 34.877 25.693C34.6161 26.014 34.3039 26.2902 33.9529 26.5104C33.5793 26.745 33.1727 26.9229 32.7465 27.0381L35.9841 31.8773H33.9218L30.9067 27.2394ZM31.1077 25.8162C31.4856 25.82 31.8613 25.7593 32.2186 25.6367C32.543 25.5255 32.8432 25.3541 33.1035 25.1316C33.3542 24.9151 33.5548 24.6472 33.6917 24.3463C33.8317 24.0236 33.9036 23.6758 33.9027 23.3243C33.9018 22.9728 33.8282 22.6253 33.6865 22.3033C33.547 22.0002 33.3449 21.7296 33.0935 21.5093C32.831 21.2824 32.5272 21.1078 32.1986 20.995C31.8383 20.8701 31.459 20.8079 31.0775 20.8112H27.1153V25.8148L31.1077 25.8162Z" fill="#303038"/>
<path d="M47.9726 19.3896H50.0098L43.7462 31.8773H41.9691L35.6949 19.3896H37.7321L42.8469 29.7286H42.858L47.9726 19.3896Z" fill="#303038"/>
<path d="M52.0608 19.3896H61.1498V20.8222H53.8404V24.9817H60.1946V26.405H53.8404V30.4543H61.2401V31.8775H52.0608V19.3896Z" fill="#303038"/>
<path d="M71.3743 19.3896H80.4631V20.8222H73.1537V25.2846H79.5079V26.6982H73.1537V31.8768H71.3743V19.3896Z" fill="#303038"/>
<path d="M83.7661 19.3896H85.5466V31.8773H83.7661V19.3896Z" fill="#303038"/>
<path d="M93.7448 27.2394H89.9543V31.8773H88.1749V19.3896H93.9859C94.6058 19.3826 95.2226 19.4773 95.8115 19.6698C96.3367 19.8409 96.8234 20.1122 97.2443 20.4686C97.644 20.8111 97.9648 21.2355 98.1846 21.7128C98.4136 22.2174 98.5285 22.7659 98.5213 23.3195C98.5251 23.7614 98.4537 24.2006 98.3101 24.6187C98.1757 25.008 97.975 25.3714 97.7169 25.693C97.456 26.014 97.1438 26.2902 96.7929 26.5104C96.4192 26.7449 96.0126 26.9228 95.5864 27.0381L98.8238 31.8773H96.7627L93.7448 27.2394ZM93.9458 25.8162C94.3238 25.82 94.6996 25.7593 95.057 25.6367C95.3813 25.5254 95.6815 25.354 95.9418 25.1316C96.1925 24.9152 96.3931 24.6473 96.5298 24.3463C96.6699 24.0236 96.7417 23.6758 96.7408 23.3243C96.7399 22.9728 96.6663 22.6253 96.5247 22.3033C96.3851 22.0002 96.1831 21.7296 95.9317 21.5093C95.6692 21.2825 95.3655 21.1079 95.0369 20.995C94.6765 20.8701 94.2972 20.8079 93.9156 20.8112H89.9543V25.8148L93.9458 25.8162Z" fill="#303038"/>
<path d="M101.939 28.2505C101.94 28.5796 102.033 28.902 102.206 29.1823C102.394 29.491 102.644 29.7583 102.939 29.9676C103.275 30.206 103.647 30.3889 104.04 30.5093C104.486 30.6475 104.951 30.7157 105.418 30.7112C106.685 30.7112 107.635 30.5168 108.268 30.1278C108.568 29.9574 108.815 29.7085 108.982 29.4082C109.15 29.108 109.232 28.7678 109.219 28.4246C109.233 28.0618 109.129 27.7043 108.922 27.4053C108.705 27.1202 108.424 26.8891 108.103 26.7303C107.713 26.5354 107.301 26.389 106.876 26.2944C106.407 26.1843 105.897 26.0832 105.348 25.9912C105.032 25.9486 104.695 25.8982 104.337 25.84C103.978 25.7819 103.622 25.7052 103.271 25.6102C102.924 25.5168 102.585 25.3967 102.256 25.2512C101.944 25.1162 101.656 24.9334 101.401 24.7094C101.155 24.4906 100.955 24.2255 100.813 23.9292C100.658 23.5909 100.583 23.2219 100.592 22.8502C100.589 22.3563 100.683 21.8667 100.868 21.4086C101.062 20.9427 101.37 20.5324 101.763 20.2149C102.239 19.8395 102.786 19.5632 103.372 19.4024C104.156 19.1874 104.967 19.0868 105.78 19.104C106.444 19.095 107.107 19.1832 107.746 19.3656C108.28 19.5175 108.782 19.7682 109.223 20.1047C109.619 20.4065 109.938 20.7962 110.155 21.2426C110.373 21.689 110.482 22.1798 110.475 22.6758H108.686C108.69 22.3735 108.617 22.0751 108.474 21.8082C108.328 21.5414 108.121 21.3119 107.871 21.1377C107.579 20.9371 107.254 20.7894 106.911 20.7015C106.493 20.5922 106.062 20.5393 105.629 20.5445C105.098 20.5319 104.568 20.5953 104.056 20.7327C103.692 20.8299 103.352 20.9985 103.055 21.2286C102.823 21.412 102.643 21.6524 102.532 21.9262C102.434 22.1764 102.383 22.4427 102.382 22.7115C102.371 23.0223 102.469 23.3272 102.658 23.5747C102.866 23.8252 103.132 24.022 103.432 24.1484C103.814 24.314 104.214 24.4356 104.624 24.511C105.086 24.6033 105.592 24.6799 106.142 24.7408C106.725 24.8326 107.307 24.9523 107.886 25.0998C108.436 25.2347 108.964 25.4448 109.455 25.7242C109.909 25.9826 110.296 26.3424 110.586 26.7754C110.891 27.2699 111.042 27.8437 111.018 28.4237C111.028 28.9718 110.895 29.5131 110.631 29.9943C110.36 30.4678 109.977 30.8682 109.515 31.1611C108.97 31.5041 108.37 31.7511 107.741 31.8912C106.969 32.0677 106.179 32.1524 105.388 32.1436C104.626 32.1568 103.868 32.0404 103.146 31.7995C102.55 31.6002 101.996 31.297 101.507 30.9042C101.086 30.564 100.743 30.1382 100.502 29.6553C100.281 29.2195 100.164 28.7388 100.16 28.2507L101.939 28.2505Z" fill="#303038"/>
<path d="M116.89 20.8431H112.566V19.3896H123.013V20.8431H118.679V32.1434H116.89V20.8431Z" fill="#303038"/>
<path d="M67.2483 14.9362H67.2481C66.8332 14.9362 66.4969 15.271 66.4969 15.684V35.2521C66.4969 35.6652 66.8332 36 67.2481 36H67.2483C67.6632 36 67.9995 35.6652 67.9995 35.2521V15.684C67.9995 15.271 67.6632 14.9362 67.2483 14.9362Z" fill="#303038"/>
<path d="M47.6871 18.9516L41.968 25.468C41.968 25.468 41.6018 26.5243 42.5033 26.9731C43.4048 27.4218 43.8556 26.1036 44.2782 25.1781C44.7008 24.2525 47.6871 18.9516 47.6871 18.9516Z" fill="#6E247F"/>
<path d="M39.4605 18.9516C39.4605 18.9516 38.39 19.4003 38.6999 20.2698C39.0098 21.1393 40.0803 23.0072 40.0803 23.0072C40.0803 23.0072 40.4747 23.8874 41.5735 23.2143C42.6722 22.5412 45.3768 20.7462 45.3768 20.7462C45.3768 20.7462 46.2783 19.6804 45.0951 18.9511C44.3626 18.8675 39.4605 18.9516 39.4605 18.9516Z" fill="#6E247F"/>
</g>
</mask>
<g mask="url(#mask0_1852_640)">
</g>
<g clip-path="url(#clip1_1852_640)">
<path d="M6.47084 22.7256C6.4731 23.2872 6.6297 23.8374 6.92352 24.3161C7.24381 24.843 7.6681 25.2991 8.1705 25.6565C8.74032 26.0633 9.37206 26.3755 10.0413 26.581C10.7989 26.817 11.5887 26.9333 12.3821 26.9257C14.5347 26.9257 16.1492 26.5938 17.2256 25.93C17.7345 25.639 18.154 25.2142 18.4385 24.7017C18.7231 24.1892 18.8619 23.6086 18.8399 23.0228C18.864 22.4036 18.6872 21.7933 18.3359 21.2829C17.9674 20.7962 17.4908 20.4018 16.9438 20.1309C16.2821 19.7982 15.582 19.5483 14.8592 19.3868C14.0619 19.1989 13.1963 19.0264 12.2626 18.8694C11.7265 18.7966 11.154 18.7106 10.5453 18.6112C9.93552 18.5121 9.33126 18.3813 8.73501 18.2195C8.14483 18.06 7.56788 17.8552 7.00931 17.6067C6.47985 17.3762 5.98982 17.0641 5.55705 16.6818C5.1391 16.3084 4.79936 15.8558 4.55748 15.3502C4.29427 14.7727 4.1658 14.1429 4.18177 13.5084C4.17713 12.6655 4.33674 11.8297 4.65169 11.0478C4.98103 10.2527 5.50363 9.55237 6.17212 9.01035C6.98105 8.36955 7.91058 7.89795 8.90543 7.62358C10.2376 7.25651 11.616 7.08494 12.9976 7.11423C14.1267 7.09893 15.252 7.24938 16.3375 7.56078C17.2464 7.81991 18.0983 8.24788 18.8487 8.82231C19.5207 9.33746 20.0631 10.0025 20.4325 10.7645C20.8018 11.5264 20.988 12.3642 20.9762 13.2109H17.9345C17.9413 12.6949 17.8179 12.1855 17.5757 11.7299C17.3267 11.2745 16.9758 10.8829 16.5505 10.5855C16.0548 10.2431 15.5025 9.991 14.919 9.84103C14.2083 9.65436 13.4757 9.56418 12.741 9.57294C11.8389 9.55144 10.9383 9.65966 10.067 9.89427C9.44966 10.0602 8.87176 10.348 8.36735 10.7407C7.97299 11.0538 7.66681 11.4641 7.47884 11.9313C7.31113 12.3584 7.22413 12.8129 7.22224 13.2718C7.20453 13.8023 7.37052 14.3227 7.69216 14.7451C8.0456 15.1726 8.49702 15.5086 9.00807 15.7244C9.65714 16.007 10.3363 16.2146 11.0325 16.3432C11.8181 16.5008 12.6779 16.6315 13.6119 16.7354C14.603 16.8922 15.5911 17.0964 16.5761 17.3482C17.5097 17.5784 18.4067 17.9371 19.2416 18.414C20.0127 18.8549 20.6707 19.4692 21.1634 20.2083C21.6826 21.0521 21.9383 22.0317 21.898 23.0216C21.9148 23.9571 21.6882 24.8809 21.2404 25.7025C20.7793 26.5104 20.1284 27.194 19.3439 27.694C18.4179 28.2795 17.3979 28.7011 16.3287 28.9402C15.0178 29.2414 13.6758 29.386 12.3308 29.371C11.0367 29.3934 9.74819 29.1948 8.52092 28.7835C7.50938 28.4435 6.56645 27.9261 5.73629 27.2555C5.02126 26.6749 4.43873 25.9481 4.02782 25.1238C3.6524 24.38 3.45359 23.5595 3.44684 22.7263L6.47084 22.7256Z" fill="#303038"/>
<path d="M26.5109 7.60138H41.9553V10.0467H29.5349V17.1463H40.3307V19.5756H29.5349V26.4872H42.1088V28.9164H26.5109V7.60138Z" fill="#303038"/>
<path d="M55.9648 20.9999H49.5223V28.9161H46.4968V7.60139H56.3719C57.4252 7.58943 58.4732 7.75104 59.474 8.07972C60.3664 8.37182 61.1933 8.8349 61.9086 9.44313C62.5876 10.0279 63.1325 10.7522 63.506 11.5667C63.8951 12.428 64.0904 13.3642 64.0782 14.3093C64.0847 15.0633 63.9635 15.8131 63.7197 16.5267C63.4913 17.1913 63.1502 17.8116 62.7113 18.3604C62.2679 18.9084 61.7374 19.3797 61.1411 19.7556C60.5063 20.156 59.8153 20.4596 59.091 20.6564L64.5925 28.9161H61.0883L55.9648 20.9999ZM56.3064 18.5707C56.9485 18.5772 57.587 18.4736 58.1941 18.2643C58.7452 18.0745 59.2554 17.782 59.6977 17.4022C60.1236 17.0327 60.4646 16.5754 60.6972 16.0618C60.9352 15.511 61.0572 14.9173 61.0557 14.3173C61.0542 13.7174 60.9292 13.1242 60.6884 12.5747C60.4513 12.0573 60.108 11.5955 59.6808 11.2194C59.2347 10.8322 58.7184 10.5342 58.16 10.3416C57.5478 10.1284 56.9033 10.0223 56.2551 10.0279H49.5223V18.5684L56.3064 18.5707Z" fill="#303038"/>
<path d="M84.9638 7.60138H88.4256L77.7822 28.9161H74.7624L64.1011 7.60138H67.5628L76.2541 25.2486H76.2729L84.9638 7.60138Z" fill="#303038"/>
<path d="M91.9108 7.60138H107.355V10.0467H94.9348V17.1463H105.732V19.5756H94.9348V26.4872H107.509V28.9164H91.9108V7.60138Z" fill="#303038"/>
<path d="M124.729 7.60138H140.173V10.0467H127.753V17.6634H138.55V20.0761H127.753V28.9153H124.729V7.60138Z" fill="#303038"/>
<path d="M145.786 7.60138H148.811V28.9161H145.786V7.60138Z" fill="#303038"/>
<path d="M162.742 20.9999H156.301V28.9161H153.278V7.60139H163.152C164.205 7.58943 165.253 7.75104 166.254 8.07972C167.146 8.37174 167.973 8.83483 168.689 9.44313C169.368 10.0278 169.913 10.7521 170.286 11.5667C170.675 12.428 170.871 13.3642 170.859 14.3093C170.865 15.0634 170.744 15.8131 170.5 16.5267C170.271 17.1912 169.93 17.8115 169.492 18.3604C169.048 18.9084 168.518 19.3797 167.921 19.7556C167.287 20.1559 166.596 20.4595 165.871 20.6564L171.373 28.9161H167.87L162.742 20.9999ZM163.084 18.5707C163.726 18.5772 164.365 18.4736 164.972 18.2643C165.523 18.0743 166.033 17.7818 166.475 17.4022C166.901 17.0328 167.242 16.5755 167.475 16.0618C167.713 15.511 167.835 14.9173 167.833 14.3173C167.831 13.7174 167.706 13.1242 167.466 12.5747C167.229 12.0573 166.885 11.5955 166.458 11.2194C166.012 10.8323 165.496 10.5343 164.938 10.3416C164.325 10.1284 163.681 10.0223 163.032 10.0279H156.301V18.5684L163.084 18.5707Z" fill="#303038"/>
<path d="M176.666 22.7256C176.668 23.2873 176.825 23.8377 177.119 24.3161C177.439 24.8431 177.864 25.2992 178.366 25.6565C178.936 26.0633 179.568 26.3755 180.237 26.581C180.994 26.817 181.784 26.9333 182.577 26.9257C184.73 26.9257 186.345 26.5938 187.421 25.93C187.93 25.639 188.35 25.2142 188.634 24.7017C188.919 24.1892 189.058 23.6086 189.036 23.0228C189.06 22.4036 188.883 21.7933 188.531 21.2829C188.163 20.7963 187.686 20.4019 187.139 20.1309C186.478 19.7982 185.777 19.5483 185.055 19.3868C184.257 19.1989 183.392 19.0264 182.458 18.8694C181.922 18.7966 181.35 18.7106 180.741 18.6113C180.131 18.512 179.527 18.3811 178.93 18.2191C178.34 18.0595 177.763 17.8547 177.204 17.6063C176.675 17.3758 176.185 17.0637 175.752 16.6814C175.334 16.3081 174.995 15.8555 174.753 15.3498C174.49 14.7723 174.361 14.1425 174.377 13.5081C174.372 12.6651 174.532 11.8293 174.847 11.0474C175.176 10.2523 175.699 9.55201 176.368 9.00998C177.176 8.36923 178.106 7.89763 179.101 7.62321C180.433 7.25617 181.811 7.0846 183.193 7.11386C184.322 7.09856 185.447 7.24901 186.533 7.5604C187.441 7.81962 188.293 8.24758 189.044 8.82194C189.716 9.33707 190.258 10.0021 190.628 10.7641C190.997 11.5261 191.183 12.3638 191.171 13.2105H188.13C188.137 12.6945 188.013 12.1852 187.771 11.7295C187.522 11.2742 187.171 10.8825 186.746 10.5852C186.25 10.2427 185.698 9.99063 185.114 9.84066C184.404 9.65398 183.671 9.56381 182.936 9.57257C182.034 9.55106 181.134 9.65928 180.263 9.8939C179.645 10.0598 179.067 10.3476 178.563 10.7403C178.168 11.0533 177.862 11.4637 177.674 11.931C177.507 12.358 177.42 12.8126 177.418 13.2714C177.4 13.8019 177.566 14.3223 177.888 14.7447C178.241 15.1723 178.693 15.5082 179.204 15.724C179.853 16.0066 180.532 16.2142 181.228 16.3429C182.014 16.5004 182.874 16.6311 183.807 16.7351C184.798 16.8918 185.787 17.0961 186.772 17.3478C187.705 17.578 188.602 17.9367 189.437 18.4136C190.208 18.8546 190.866 19.4689 191.359 20.2079C191.878 21.0519 192.134 22.0313 192.093 23.0213C192.11 23.9568 191.884 24.8806 191.436 25.7021C190.975 26.5102 190.324 27.1937 189.539 27.6936C188.613 28.2791 187.593 28.7007 186.524 28.9398C185.213 29.241 183.871 29.3856 182.526 29.3707C181.232 29.3931 179.944 29.1944 178.716 28.7832C177.705 28.443 176.762 27.9256 175.932 27.2551C175.217 26.6744 174.634 25.9476 174.223 25.1234C173.848 24.3796 173.649 23.5592 173.642 22.726L176.666 22.7256Z" fill="#303038"/>
<path d="M202.071 10.0823H194.724V7.60138H212.476V10.0823H205.112V29.3703H202.071V10.0823Z" fill="#303038"/>
<path d="M117.718 0H117.718C117.013 0 116.441 0.571494 116.441 1.27647V34.6764C116.441 35.3814 117.013 35.9529 117.718 35.9529H117.718C118.423 35.9529 118.995 35.3814 118.995 34.6764V1.27647C118.995 0.571494 118.423 0 117.718 0Z" fill="#303038"/>
<path d="M84.4788 6.85376L74.7607 17.9762C74.7607 17.9762 74.1383 19.7793 75.6703 20.5452C77.2022 21.3112 77.9681 19.0612 78.6862 17.4814C79.4043 15.9016 84.4788 6.85376 84.4788 6.85376Z" fill="#6E247F"/>
<path d="M70.4998 6.85379C70.4998 6.85379 68.6806 7.61974 69.2072 9.10379C69.7338 10.5878 71.553 13.7761 71.553 13.7761C71.553 13.7761 72.2232 15.2786 74.0902 14.1296C75.9572 12.9807 80.553 9.91686 80.553 9.91686C80.553 9.91686 82.0849 8.09771 80.0743 6.85303C78.8296 6.71018 70.4998 6.85379 70.4998 6.85379Z" fill="#6E247F"/>
</g>
<defs>
<clipPath id="clip0_1852_640">
<rect width="123.013" height="21.0638" fill="white" transform="translate(0 14.9362)"/>
</clipPath>
<clipPath id="clip1_1852_640">
<rect width="209.029" height="35.9529" fill="white" transform="translate(3.44684)"/>
</clipPath>
</defs>
</svg>
