<svg width="210" height="36" viewBox="0 0 210 36" fill="none" xmlns="http://www.w3.org/2000/svg">
<mask id="mask0_1852_638" style="mask-type:alpha" maskUnits="userSpaceOnUse" x="0" y="14" width="122" height="22">
<g clip-path="url(#clip0_1852_638)">
<path d="M1.75715 28.2504C1.75846 28.5795 1.84946 28.9018 2.02019 29.1823C2.2063 29.491 2.45284 29.7582 2.74477 29.9676C3.07587 30.2059 3.44295 30.3888 3.83186 30.5092C4.27206 30.6475 4.73096 30.7156 5.192 30.7112C6.44281 30.7112 7.38095 30.5167 8.00642 30.1278C8.30211 29.9573 8.54585 29.7084 8.7112 29.4082C8.87655 29.1079 8.95721 28.7678 8.94442 28.4246C8.95839 28.0618 8.85566 27.7043 8.65156 27.4052C8.43744 27.1201 8.16051 26.889 7.84264 26.7303C7.45817 26.5354 7.05135 26.3889 6.63137 26.2943C6.16805 26.1842 5.66512 26.0832 5.12257 25.9912C4.81102 25.9486 4.4784 25.8982 4.12472 25.84C3.77037 25.7819 3.41925 25.7053 3.07279 25.6104C2.72985 25.517 2.3946 25.397 2.07004 25.2514C1.76239 25.1164 1.47764 24.9335 1.22618 24.7096C0.983319 24.4908 0.785904 24.2256 0.645356 23.9294C0.492414 23.591 0.417764 23.2221 0.427048 22.8504C0.424351 22.3565 0.517096 21.8668 0.7001 21.4087C0.891467 20.9429 1.19514 20.5326 1.58357 20.2151C2.05362 19.8396 2.59374 19.5633 3.17181 19.4026C3.9459 19.1875 4.74687 19.087 5.54962 19.1042C6.20574 19.0952 6.85962 19.1834 7.49036 19.3658C8.01846 19.5176 8.51347 19.7684 8.94953 20.1049C9.34003 20.4067 9.65517 20.7964 9.8698 21.2428C10.0844 21.6892 10.1926 22.18 10.1857 22.676H8.41834C8.42227 22.3737 8.35055 22.0753 8.20982 21.8084C8.06514 21.5416 7.86126 21.3121 7.61409 21.1379C7.32609 20.9373 7.00514 20.7896 6.66609 20.7017C6.25313 20.5924 5.82745 20.5395 5.40052 20.5447C4.87633 20.5321 4.35307 20.5955 3.84677 20.7329C3.48805 20.8301 3.15225 20.9987 2.85915 21.2288C2.63 21.4123 2.45209 21.6527 2.34287 21.9264C2.24542 22.1766 2.19486 22.4429 2.19377 22.7117C2.18347 23.0226 2.27992 23.3274 2.46682 23.5749C2.67219 23.8254 2.9345 24.0222 3.23145 24.1486C3.60861 24.3142 4.00327 24.4359 4.40778 24.5112C4.86428 24.6035 5.36387 24.6801 5.90657 24.741C6.48249 24.8328 7.05664 24.9525 7.629 25.1C8.17146 25.2349 8.69271 25.445 9.17786 25.7244C9.62591 25.9827 10.0082 26.3426 10.2945 26.7756C10.5962 27.27 10.7448 27.8439 10.7214 28.4239C10.7311 28.972 10.5994 29.5132 10.3393 29.9945C10.0713 30.4679 9.69312 30.8684 9.23727 31.1613C8.6992 31.5043 8.10651 31.7513 7.48524 31.8914C6.72351 32.0679 5.94371 32.1526 5.16218 32.1438C4.4102 32.157 3.66151 32.0406 2.94839 31.7996C2.36061 31.6004 1.81271 31.2973 1.33032 30.9044C0.914845 30.5643 0.576356 30.1384 0.337588 29.6555C0.119445 29.2197 0.00392154 28.739 0 28.2509L1.75715 28.2504Z" fill="#303038"/>
<path d="M13.4017 19.3896H22.376V20.8222H15.1589V24.9817H21.432V26.405H15.1589V30.4543H22.4652V31.8775H13.4017V19.3896Z" fill="#303038"/>
<path d="M30.5165 27.2394H26.773V31.8773H25.015V19.3896H30.7531C31.3651 19.3826 31.9741 19.4773 32.5556 19.6698C33.0741 19.841 33.5546 20.1123 33.9703 20.4686C34.3648 20.8112 34.6814 21.2356 34.8985 21.7128C35.1246 22.2174 35.2381 22.7659 35.2309 23.3195C35.2347 23.7613 35.1643 24.2006 35.0227 24.6187C34.8899 25.008 34.6917 25.3715 34.4367 25.693C34.1791 26.014 33.8708 26.2902 33.5243 26.5104C33.1554 26.745 32.754 26.9229 32.3331 27.0381L35.5298 31.8773H33.4936L30.5165 27.2394ZM30.715 25.8162C31.0881 25.82 31.4591 25.7593 31.8119 25.6367C32.1321 25.5255 32.4286 25.3541 32.6856 25.1316C32.9331 24.9151 33.1312 24.6472 33.2664 24.3463C33.4047 24.0236 33.4756 23.6758 33.4747 23.3243C33.4738 22.9728 33.4012 22.6253 33.2613 22.3033C33.1235 22.0002 32.924 21.7296 32.6758 21.5093C32.4166 21.2824 32.1166 21.1078 31.7921 20.995C31.4363 20.8701 31.0619 20.8079 30.6852 20.8112H26.773V25.8148L30.715 25.8162Z" fill="#303038"/>
<path d="M47.3669 19.3896H49.3784L43.1939 31.8773H41.4392L35.2442 19.3896H37.2557L42.306 29.7286H42.3169L47.3669 19.3896Z" fill="#303038"/>
<path d="M51.4036 19.3896H60.3778V20.8222H53.1607V24.9817H59.4347V26.405H53.1607V30.4543H60.4671V31.8775H51.4036V19.3896Z" fill="#303038"/>
<path d="M70.4733 19.3896H79.4473V20.8222H72.2302V25.2846H78.5042V26.6982H72.2302V31.8768H70.4733V19.3896Z" fill="#303038"/>
<path d="M82.7087 19.3896H84.4667V31.8773H82.7087V19.3896Z" fill="#303038"/>
<path d="M92.5614 27.2394H88.8187V31.8773H87.0618V19.3896H92.7995C93.4115 19.3826 94.0205 19.4773 94.602 19.6698C95.1206 19.8409 95.6011 20.1122 96.0167 20.4686C96.4114 20.8111 96.7281 21.2355 96.9451 21.7128C97.1712 22.2174 97.2847 22.7659 97.2776 23.3195C97.2813 23.7614 97.2108 24.2006 97.0691 24.6187C96.9363 25.008 96.7382 25.3714 96.4834 25.693C96.2257 26.014 95.9175 26.2902 95.571 26.5104C95.202 26.7449 94.8006 26.9228 94.3797 27.0381L97.5762 31.8773H95.5411L92.5614 27.2394ZM92.7599 25.8162C93.1331 25.82 93.5041 25.7593 93.857 25.6367C94.1772 25.5254 94.4736 25.354 94.7307 25.1316C94.9782 24.9152 95.1762 24.6473 95.3113 24.3463C95.4495 24.0236 95.5204 23.6758 95.5195 23.3243C95.5187 22.9728 95.446 22.6253 95.3061 22.3033C95.1683 22.0002 94.9689 21.7296 94.7206 21.5093C94.4615 21.2825 94.1616 21.1079 93.8372 20.995C93.4813 20.8701 93.1068 20.8079 92.73 20.8112H88.8187V25.8148L92.7599 25.8162Z" fill="#303038"/>
<path d="M100.652 28.2505C100.653 28.5796 100.745 28.902 100.916 29.1823C101.102 29.491 101.348 29.7583 101.64 29.9676C101.971 30.206 102.338 30.3889 102.727 30.5093C103.167 30.6475 103.626 30.7157 104.087 30.7112C105.338 30.7112 106.276 30.5168 106.902 30.1278C107.197 29.9574 107.441 29.7085 107.606 29.4082C107.772 29.108 107.853 28.7678 107.84 28.4246C107.854 28.0618 107.751 27.7043 107.547 27.4053C107.333 27.1202 107.056 26.8891 106.738 26.7303C106.353 26.5354 105.947 26.389 105.527 26.2944C105.063 26.1843 104.56 26.0832 104.018 25.9912C103.706 25.9486 103.374 25.8982 103.02 25.84C102.666 25.7819 102.314 25.7052 101.968 25.6102C101.625 25.5168 101.29 25.3967 100.965 25.2512C100.657 25.1162 100.373 24.9334 100.121 24.7094C99.8783 24.4906 99.6809 24.2255 99.5405 23.9292C99.3875 23.5909 99.3128 23.2219 99.322 22.8502C99.3193 22.3563 99.412 21.8667 99.595 21.4086C99.7865 20.9427 100.09 20.5324 100.479 20.2149C100.949 19.8395 101.489 19.5632 102.067 19.4024C102.841 19.1874 103.642 19.0868 104.445 19.104C105.101 19.095 105.755 19.1832 106.385 19.3656C106.913 19.5175 107.408 19.7682 107.844 20.1047C108.235 20.4065 108.55 20.7962 108.765 21.2426C108.979 21.689 109.088 22.1798 109.081 22.6758H107.313C107.317 22.3735 107.246 22.0751 107.105 21.8082C106.96 21.5414 106.756 21.3119 106.509 21.1377C106.221 20.9371 105.9 20.7894 105.561 20.7015C105.148 20.5922 104.723 20.5393 104.296 20.5445C103.772 20.5319 103.248 20.5953 102.742 20.7327C102.383 20.8299 102.047 20.9985 101.754 21.2286C101.525 21.412 101.347 21.6524 101.238 21.9262C101.141 22.1764 101.09 22.4427 101.089 22.7115C101.079 23.0223 101.175 23.3272 101.362 23.5747C101.567 23.8252 101.83 24.022 102.127 24.1484C102.504 24.314 102.898 24.4356 103.303 24.511C103.76 24.6033 104.259 24.6799 104.802 24.7408C105.378 24.8326 105.952 24.9523 106.524 25.0998C107.067 25.2347 107.588 25.4448 108.073 25.7242C108.521 25.9826 108.903 26.3424 109.19 26.7754C109.491 27.2699 109.64 27.8437 109.617 28.4237C109.626 28.9718 109.495 29.5131 109.234 29.9943C108.967 30.4678 108.588 30.8682 108.132 31.1611C107.594 31.5041 107.002 31.7511 106.38 31.8912C105.619 32.0677 104.839 32.1524 104.057 32.1436C103.305 32.1568 102.557 32.0404 101.844 31.7995C101.256 31.6002 100.708 31.297 100.225 30.9042C99.8101 30.564 99.4716 30.1382 99.2327 29.6553C99.0146 29.2195 98.8991 28.7388 98.8952 28.2507L100.652 28.2505Z" fill="#303038"/>
<path d="M115.414 20.8431H111.145V19.3896H121.46V20.8431H117.181V32.1434H115.414V20.8431Z" fill="#303038"/>
<path d="M66.3994 14.9362H66.3992C65.9895 14.9362 65.6574 15.271 65.6574 15.684V35.2521C65.6574 35.6652 65.9895 36 66.3992 36H66.3994C66.809 36 67.1411 35.6652 67.1411 35.2521V15.684C67.1411 15.271 66.809 14.9362 66.3994 14.9362Z" fill="#303038"/>
<path d="M47.0851 18.9516L41.4382 25.468C41.4382 25.468 41.0766 26.5243 41.9667 26.9731C42.8569 27.4218 43.3019 26.1036 43.7192 25.1781C44.1364 24.2525 47.0851 18.9516 47.0851 18.9516Z" fill="#6E247F"/>
<path d="M38.9623 18.9516C38.9623 18.9516 37.9053 19.4003 38.2113 20.2698C38.5173 21.1393 39.5743 23.0072 39.5743 23.0072C39.5743 23.0072 39.9637 23.8874 41.0486 23.2143C42.1335 22.5412 44.8039 20.7462 44.8039 20.7462C44.8039 20.7462 45.6941 19.6804 44.5258 18.9511C43.8025 18.8675 38.9623 18.9516 38.9623 18.9516Z" fill="#6E247F"/>
</g>
</mask>
<g mask="url(#mask0_1852_638)">
</g>
<g clip-path="url(#clip1_1852_638)">
<path d="M6.38911 22.7256C6.39135 23.2872 6.54597 23.8374 6.83608 24.3161C7.15233 24.843 7.57126 25.2991 8.06732 25.6565C8.62994 26.0633 9.25371 26.3755 9.91455 26.581C10.6626 26.817 11.4423 26.9333 12.2258 26.9257C14.3512 26.9257 15.9453 26.5938 17.0082 25.93C17.5106 25.639 17.9248 25.2142 18.2057 24.7017C18.4867 24.1892 18.6238 23.6086 18.602 23.0228C18.6258 22.4036 18.4512 21.7933 18.1044 21.2829C17.7405 20.7962 17.27 20.4018 16.7298 20.1309C16.0765 19.7982 15.3852 19.5483 14.6716 19.3868C13.8843 19.1989 13.0297 19.0264 12.1078 18.8694C11.5784 18.7966 11.0132 18.7106 10.4122 18.6112C9.81006 18.5121 9.21343 18.3813 8.6247 18.2195C8.04197 18.06 7.4723 17.8552 6.92079 17.6067C6.39802 17.3762 5.91416 17.0641 5.48686 16.6818C5.07419 16.3084 4.73873 15.8558 4.49991 15.3502C4.24002 14.7727 4.11317 14.1429 4.12895 13.5084C4.12437 12.6655 4.28196 11.8297 4.59293 11.0478C4.91811 10.2527 5.43412 9.55237 6.09416 9.01035C6.89289 8.36955 7.81068 7.89795 8.79297 7.62358C10.1083 7.25651 11.4694 7.08494 12.8334 7.11423C13.9484 7.09893 15.0595 7.24938 16.1312 7.56078C17.0286 7.81991 17.8698 8.24788 18.6107 8.82231C19.2743 9.33746 19.8098 10.0025 20.1745 10.7645C20.5392 11.5264 20.723 12.3642 20.7113 13.2109H17.7081C17.7148 12.6949 17.5929 12.1855 17.3538 11.7299C17.1079 11.2745 16.7615 10.8829 16.3415 10.5855C15.8521 10.2431 15.3067 9.991 14.7306 9.84103C14.0289 9.65436 13.3056 9.56418 12.5801 9.57294C11.6894 9.55144 10.8002 9.65966 9.93989 9.89427C9.33033 10.0602 8.75973 10.348 8.26168 10.7407C7.8723 11.0538 7.56999 11.4641 7.38439 11.9313C7.2188 12.3584 7.1329 12.8129 7.13103 13.2718C7.11354 13.8023 7.27743 14.3227 7.59502 14.7451C7.944 15.1726 8.38972 15.5086 8.89432 15.7244C9.53519 16.007 10.2058 16.2146 10.8932 16.3432C11.6689 16.5008 12.5178 16.6315 13.44 16.7354C14.4186 16.8922 15.3942 17.0964 16.3668 17.3482C17.2886 17.5784 18.1743 17.9371 18.9987 18.414C19.7601 18.8549 20.4097 19.4692 20.8962 20.2083C21.4088 21.0521 21.6614 22.0317 21.6215 23.0216C21.6381 23.9571 21.4143 24.8809 20.9722 25.7025C20.517 26.5104 19.8743 27.194 19.0997 27.694C18.1853 28.2795 17.1782 28.7011 16.1225 28.9402C14.8282 29.2414 13.5031 29.386 12.1751 29.371C10.8973 29.3934 9.62509 29.1948 8.41332 28.7835C7.41454 28.4435 6.48352 27.9261 5.66383 27.2555C4.95783 26.6749 4.38266 25.9481 3.97693 25.1238C3.60626 24.38 3.40995 23.5595 3.40329 22.7263L6.38911 22.7256Z" fill="white"/>
<path d="M26.1761 7.60138H41.4255V10.0467H29.1619V17.1463H39.8214V19.5756H29.1619V26.4872H41.5772V28.9164H26.1761V7.60138Z" fill="white"/>
<path d="M55.2583 20.9999H48.8971V28.9161H45.9098V7.60139H55.6602C56.7002 7.58943 57.7351 7.75104 58.7232 8.07972C59.6043 8.37182 60.4208 8.8349 61.127 9.44313C61.7975 10.0279 62.3355 10.7522 62.7043 11.5667C63.0885 12.428 63.2813 13.3642 63.2692 14.3093C63.2757 15.0633 63.156 15.8131 62.9153 16.5267C62.6898 17.1913 62.353 17.8116 61.9196 18.3604C61.4818 18.9084 60.958 19.3797 60.3692 19.7556C59.7424 20.156 59.0602 20.4596 58.345 20.6564L63.7771 28.9161H60.3171L55.2583 20.9999ZM55.5956 18.5707C56.2296 18.5772 56.86 18.4736 57.4594 18.2643C58.0036 18.0745 58.5074 17.782 58.944 17.4022C59.3646 17.0327 59.7013 16.5754 59.931 16.0618C60.1659 15.511 60.2864 14.9173 60.2849 14.3173C60.2834 13.7174 60.16 13.1242 59.9223 12.5747C59.6881 12.0573 59.3492 11.5955 58.9274 11.2194C58.4869 10.8322 57.9772 10.5342 57.4258 10.3416C56.8213 10.1284 56.185 10.0223 55.5449 10.0279H48.8971V18.5684L55.5956 18.5707Z" fill="white"/>
<path d="M83.8912 7.60138H87.3093L76.8003 28.9161H73.8186L63.2918 7.60138H66.7099L75.2915 25.2486H75.31L83.8912 7.60138Z" fill="white"/>
<path d="M90.7505 7.60138H106V10.0467H93.7363V17.1463H104.397V19.5756H93.7363V26.4872H106.152V28.9164H90.7505V7.60138Z" fill="white"/>
<path d="M123.155 7.60138H138.404V10.0467H126.14V17.6634H136.801V20.0761H126.14V28.9153H123.155V7.60138Z" fill="white"/>
<path d="M143.945 7.60138H146.933V28.9161H143.945V7.60138Z" fill="white"/>
<path d="M160.688 20.9999H154.328V28.9161H151.343V7.60139H161.092C162.132 7.58943 163.167 7.75104 164.155 8.07972C165.036 8.37174 165.853 8.83483 166.559 9.44313C167.23 10.0278 167.768 10.7521 168.137 11.5667C168.521 12.428 168.714 13.3642 168.702 14.3093C168.708 15.0634 168.588 15.8131 168.347 16.5267C168.122 17.1912 167.785 17.8115 167.352 18.3604C166.914 18.9084 166.39 19.3797 165.802 19.7556C165.175 20.1559 164.493 20.4595 163.777 20.6564L169.209 28.9161H165.751L160.688 20.9999ZM161.025 18.5707C161.659 18.5772 162.29 18.4736 162.889 18.2643C163.433 18.0743 163.937 17.7818 164.374 17.4022C164.794 17.0328 165.131 16.5755 165.36 16.0618C165.595 15.511 165.716 14.9173 165.714 14.3173C165.713 13.7174 165.589 13.1242 165.352 12.5747C165.117 12.0573 164.779 11.5955 164.357 11.2194C163.916 10.8323 163.407 10.5343 162.855 10.3416C162.251 10.1284 161.614 10.0223 160.974 10.0279H154.328V18.5684L161.025 18.5707Z" fill="white"/>
<path d="M174.436 22.7256C174.438 23.2873 174.593 23.8377 174.883 24.3161C175.199 24.8431 175.618 25.2992 176.114 25.6565C176.677 26.0633 177.301 26.3755 177.961 26.581C178.709 26.817 179.489 26.9333 180.272 26.9257C182.398 26.9257 183.993 26.5938 185.055 25.93C185.558 25.639 185.972 25.2142 186.253 24.7017C186.534 24.1892 186.671 23.6086 186.649 23.0228C186.673 22.4036 186.498 21.7933 186.151 21.2829C185.787 20.7963 185.317 20.4019 184.777 20.1309C184.123 19.7982 183.432 19.5483 182.719 19.3868C181.931 19.1989 181.077 19.0264 180.155 18.8694C179.625 18.7966 179.06 18.7106 178.46 18.6113C177.857 18.512 177.26 18.3811 176.671 18.2191C176.089 18.0595 175.519 17.8547 174.967 17.6063C174.445 17.3758 173.961 17.0637 173.533 16.6814C173.121 16.3081 172.785 15.8555 172.547 15.3498C172.287 14.7723 172.16 14.1425 172.176 13.5081C172.171 12.6651 172.329 11.8293 172.639 11.0474C172.965 10.2523 173.481 9.55201 174.141 9.00998C174.94 8.36923 175.857 7.89763 176.84 7.62321C178.155 7.25617 179.516 7.0846 180.88 7.11386C181.995 7.09856 183.106 7.24901 184.178 7.5604C185.075 7.81962 185.916 8.24758 186.657 8.82194C187.321 9.33707 187.856 10.0021 188.221 10.7641C188.586 11.5261 188.77 12.3638 188.758 13.2105H185.755C185.762 12.6945 185.64 12.1852 185.401 11.7295C185.155 11.2742 184.808 10.8825 184.388 10.5852C183.899 10.2427 183.354 9.99063 182.778 9.84066C182.076 9.65398 181.352 9.56381 180.627 9.57257C179.736 9.55106 178.847 9.65928 177.987 9.8939C177.378 10.0598 176.807 10.3476 176.309 10.7403C175.919 11.0533 175.617 11.4637 175.431 11.931C175.266 12.358 175.18 12.8126 175.178 13.2714C175.161 13.8019 175.325 14.3223 175.642 14.7447C175.991 15.1723 176.437 15.5082 176.941 15.724C177.582 16.0066 178.253 16.2142 178.94 16.3429C179.716 16.5004 180.565 16.6311 181.487 16.7351C182.466 16.8918 183.441 17.0961 184.414 17.3478C185.336 17.578 186.221 17.9367 187.046 18.4136C187.807 18.8546 188.457 19.4689 188.943 20.2079C189.456 21.0519 189.708 22.0313 189.668 23.0213C189.685 23.9568 189.461 24.8806 189.019 25.7021C188.564 26.5102 187.921 27.1937 187.147 27.6936C186.232 28.2791 185.225 28.7007 184.169 28.9398C182.875 29.241 181.55 29.3856 180.222 29.3707C178.944 29.3931 177.672 29.1944 176.46 28.7832C175.462 28.443 174.531 27.9256 173.711 27.2551C173.005 26.6744 172.43 25.9476 172.024 25.1234C171.653 24.3796 171.457 23.5592 171.45 22.726L174.436 22.7256Z" fill="white"/>
<path d="M199.52 10.0823H192.266V7.60138H209.793V10.0823H202.523V29.3703H199.52V10.0823Z" fill="white"/>
<path d="M116.232 0H116.232C115.536 0 114.971 0.571494 114.971 1.27647V34.6764C114.971 35.3814 115.536 35.9529 116.232 35.9529H116.232C116.928 35.9529 117.492 35.3814 117.492 34.6764V1.27647C117.492 0.571494 116.928 0 116.232 0Z" fill="white"/>
<path d="M83.4123 6.85376L73.8169 17.9762C73.8169 17.9762 73.2024 19.7793 74.715 20.5452C76.2275 21.3112 76.9838 19.0612 77.6928 17.4814C78.4019 15.9016 83.4123 6.85376 83.4123 6.85376Z" fill="#FFBE54"/>
<path d="M69.6098 6.85379C69.6098 6.85379 67.8136 7.61974 68.3336 9.10379C68.8535 10.5878 70.6497 13.7761 70.6497 13.7761C70.6497 13.7761 71.3114 15.2786 73.1549 14.1296C74.9983 12.9807 79.5361 9.91686 79.5361 9.91686C79.5361 9.91686 81.0486 8.09771 79.0634 6.85303C77.8344 6.71018 69.6098 6.85379 69.6098 6.85379Z" fill="#FFBE54"/>
</g>
<defs>
<clipPath id="clip0_1852_638">
<rect width="121.46" height="21.0638" fill="white" transform="translate(0 14.9362)"/>
</clipPath>
<clipPath id="clip1_1852_638">
<rect width="206.39" height="35.9529" fill="white" transform="translate(3.40329)"/>
</clipPath>
</defs>
</svg>
